# xmcd CD database file
#
# Track frame offsets:
#	150
#	10892
#	23197
#	36577
#	46617
#	57097
#	67010
#	80860
#	96337
#	109477
#	124307
#	138315
#	150810
#	162777
#	178165
#	195205
#	207547
#	220275
#	235740
#	247137
#
# Disc length: 3441 seconds
#
# Revision: 1
# Processed by: cddbd v1.4PL0 Copyright (c) Steve Scherf et al.
# Submitted via: CDex 1.40Release
#
DISCID=1e0d6f14
DTITLE=Carl Perkins - The Best Of Carl Perkins
DYEAR=1994
DGENRE=Country
TTITLE0=Carl Perkins - I Don't Like What I'm Seeing In You
TTITLE1=Carl Perkins - Rise And Shine
TTITLE2=Carl Perkins - Hallelujah SpeciaL
TTITLE3=Carl Perkins - This Ole House
TTITLE4=Carl Perkins - Blue Suede Shoes
TTITLE5=Carl Perkins - All Mama's Children
TTITLE6=Carl Perkins - Country Soul
TTITLE7=When You're 21
TTITLE8=Sundays Are Fundays With My Lord
TTITLE9=Redneck
TTITLE10=Every Road
TTITLE11=Don't Get Off On Gettin' It On
TTITLE12=Standing In The Need Of Love
TTITLE13=I dont want to fall in love agan
TTITLE14=Sweeter than candy
TTITLE15=I want you back agan
TTITLE16=We did in '54
TTITLE17=The hurt put on by you
TTITLE18=Thats right
TTITLE19=Dixie fried
EXTD=YEAR: 1994 ID3G: 2
EXTT0=
EXTT1=
EXTT2=
EXTT3=
EXTT4=
EXTT5=
EXTT6=
EXTT7=
EXTT8=
EXTT9=
EXTT10=
EXTT11=
EXTT12=
EXTT13=
EXTT14=
EXTT15=
EXTT16=
EXTT17=
EXTT18=
EXTT19=
PLAYORDER=
